<svg width="1200" height="630" viewBox="0 0 1200 630" fill="none" xmlns="http://www.w3.org/2000/svg">
  <defs>
    <linearGradient id="bg" x1="70" y1="40" x2="1130" y2="590" gradientUnits="userSpaceOnUse">
      <stop stop-color="#F4EFE7" />
      <stop offset="1" stop-color="#E8E0D2" />
    </linearGradient>
    <linearGradient id="card" x1="180" y1="120" x2="980" y2="520" gradientUnits="userSpaceOnUse">
      <stop stop-color="#FFFFFF" stop-opacity="0.92" />
      <stop offset="1" stop-color="#F8F4EE" stop-opacity="0.98" />
    </linearGradient>
  </defs>

  <rect width="1200" height="630" fill="url(#bg)" />
  <circle cx="1030" cy="120" r="220" fill="#C7A77A" fill-opacity="0.14" />
  <circle cx="180" cy="560" r="180" fill="#9C8158" fill-opacity="0.15" />

  <rect x="150" y="95" width="900" height="440" rx="28" fill="url(#card)" stroke="#E4D7C6" stroke-width="2" />

  <rect x="220" y="192" width="200" height="16" rx="8" fill="#C0A37A" fill-opacity="0.4" />
  <rect x="220" y="228" width="325" height="18" rx="9" fill="#8E6E46" fill-opacity="0.88" />

  <rect x="220" y="292" width="740" height="14" rx="7" fill="#D5C2A8" />
  <rect x="220" y="322" width="700" height="14" rx="7" fill="#DCCCB5" />
  <rect x="220" y="352" width="600" height="14" rx="7" fill="#E5D7C3" />

  <rect x="220" y="410" width="185" height="52" rx="26" fill="#8E6E46" />
  <text x="312" y="444" text-anchor="middle" fill="#FFFFFF" font-family="Outfit, sans-serif" font-size="24" font-weight="600">Open Ledger</text>

  <text x="220" y="170" fill="#8E6E46" font-family="DM Mono, monospace" font-size="24" letter-spacing="0.18em">PERSONAL FINANCE</text>
  <text x="220" y="265" fill="#503A22" font-family="Playfair Display, serif" font-size="62" font-weight="600">Ledger</text>

  <text x="220" y="500" fill="#6B5236" font-family="Outfit, sans-serif" font-size="26">Track spending, budgets, and account activity in one dashboard.</text>
</svg>
